<svg width="291" height="291" viewBox="0 0 291 291" fill="none" xmlns="http://www.w3.org/2000/svg">
<circle cx="145.361" cy="145.361" r="102.5" transform="rotate(48.6981 145.361 145.361)" stroke="white" stroke-dasharray="6 6"/>
<circle cx="146.158" cy="143.995" r="71.5" transform="rotate(48.6981 146.158 143.995)" fill="white"/>
<path d="M127.621 115.933L121.962 123.141L122.815 124.329C122.599 124.52 122.303 124.659 121.926 124.748L119.498 121.984L119.887 121.578C120.202 121.727 120.547 121.949 120.92 122.246L126.534 115.035L118.3 119.457L117.255 118.267L122.196 110.05L114.718 114.895L115.519 116.001C115.295 116.198 114.995 116.341 114.619 116.43L112.19 113.666L112.579 113.26C113.017 113.5 113.423 113.768 113.797 114.064L121.697 108.997C121.34 108.445 121.083 107.982 120.925 107.609L121.448 107.235L123.909 110.036L119.001 117.734L119.043 117.782L126.94 113.485L129.295 116.166C129.158 116.527 128.97 116.814 128.729 117.025C128.215 116.553 127.846 116.189 127.621 115.933ZM126.214 129.919C125.813 129.463 125.5 129.034 125.277 128.634C125.053 128.234 124.9 127.794 124.818 127.312C124.632 126.325 125.102 125.316 126.227 124.286C127.359 123.263 129.006 121.744 131.17 119.73C130.952 119.353 130.731 118.908 130.508 118.395L130.96 118.061L133.611 121.078C133.474 121.44 133.293 121.719 133.069 121.916C132.849 121.698 132.541 121.379 132.144 120.961C131.201 121.761 129.799 122.978 127.94 124.612C126.939 125.492 126.403 126.289 126.335 127.002C126.273 127.724 126.545 128.429 127.15 129.118C127.411 129.415 127.668 129.643 127.922 129.803C128.184 129.971 128.501 130.082 128.876 130.137C129.625 130.246 130.56 129.807 131.682 128.822C131.69 128.815 133.044 127.561 135.746 125.06C135.381 124.273 135.18 123.81 135.144 123.671L135.596 123.338L138.215 126.319C137.999 126.736 137.819 127.008 137.675 127.134C137.231 126.629 136.942 126.308 136.807 126.171C136.152 126.718 135.225 127.497 134.026 128.508C132.842 129.52 132.062 130.184 131.687 130.5C130.752 131.278 129.808 131.61 128.856 131.496C127.911 131.374 127.031 130.849 126.214 129.919ZM133.382 138.102C131.312 135.746 131.756 133.27 134.713 130.672C136.115 129.44 137.431 128.788 138.66 128.716C139.896 128.652 141.067 129.25 142.172 130.508C143.059 131.517 143.567 132.661 143.696 133.939C143.247 134.334 142.629 134.777 141.842 135.271C141.719 135.18 141.503 134.958 141.193 134.605L142.367 132.935C141.971 132.275 141.622 131.772 141.319 131.427C140.763 130.794 140.185 130.315 139.587 129.989L139.302 129.835C139.179 129.857 139.006 129.902 138.783 129.971C138.567 130.033 138.158 130.222 137.556 130.538C136.96 130.862 136.402 131.253 135.881 131.711C134.752 132.704 134.016 133.676 133.675 134.629C133.341 135.59 133.532 136.479 134.251 137.297C134.765 137.882 135.212 138.27 135.593 138.461C135.703 138.506 135.865 138.569 136.079 138.651L137.743 137.636L138.32 138.365C137.6 139.21 136.984 139.858 136.471 140.309C136.195 140.253 135.734 140.012 135.089 139.584C134.451 139.165 133.882 138.671 133.382 138.102ZM143.531 139.618L146.962 143.547C147.925 142.672 148.87 141.8 149.795 140.93C149.591 140.584 149.374 140.143 149.144 139.607L149.596 139.273L152.236 142.278C152.1 142.639 151.919 142.919 151.695 143.116C151.311 142.743 151.013 142.437 150.802 142.197L143.858 148.063L144.649 149.157C144.425 149.354 144.125 149.497 143.749 149.586L141.32 146.822L141.709 146.416C142.168 146.68 142.588 146.964 142.969 147.268L146.226 144.236L142.741 140.27C141.284 141.521 140.199 142.46 139.486 143.086L140.277 144.181C140.053 144.378 139.753 144.521 139.377 144.61L136.948 141.845L137.337 141.44C137.796 141.704 138.216 141.988 138.597 142.292C141.635 139.48 143.911 137.367 145.423 135.954C145.219 135.608 145.002 135.167 144.772 134.63L145.224 134.297L147.864 137.302C147.728 137.663 147.547 137.943 147.323 138.14C146.939 137.767 146.641 137.461 146.43 137.22C145.8 137.731 144.833 138.531 143.531 139.618ZM154.182 145.002C154.357 145.104 154.754 145.45 155.373 146.042C156 146.627 156.543 147.18 157.001 147.701C157.465 148.229 157.8 148.659 158.006 148.99C157.981 149.026 157.944 149.065 157.896 149.108C157.856 149.143 157.735 149.207 157.532 149.3C157.337 149.4 157.204 149.46 157.135 149.478C157.015 149.47 156.808 149.332 156.516 149.064L151.886 157.199L152.793 158.426C152.568 158.623 152.268 158.766 151.892 158.855L149.463 156.091L149.852 155.685C150.11 155.785 150.43 155.979 150.812 156.268L151.992 154.145L149.046 150.792L146.975 151.61L147.734 152.668C147.51 152.865 147.21 153.009 146.834 153.098L144.405 150.333L144.794 149.927C145.181 150.141 145.561 150.396 145.935 150.693L154.799 147.037C154.252 146.253 153.908 145.668 153.767 145.281L154.182 145.002ZM153.839 150.841L155.635 148.134C155.601 148.079 155.545 148.007 155.467 147.919L152.445 149.424L150.005 150.332L152.572 153.253L153.839 150.841ZM155.287 163.034C153.217 160.678 153.661 158.201 156.617 155.604C158.02 154.372 159.335 153.72 160.564 153.648C161.801 153.584 162.971 154.181 164.077 155.439C164.964 156.449 165.472 157.593 165.601 158.871C165.152 159.265 164.534 159.709 163.746 160.202C163.624 160.111 163.407 159.89 163.098 159.537L164.271 157.867C163.876 157.206 163.526 156.704 163.224 156.359C162.667 155.726 162.09 155.247 161.491 154.921L161.206 154.766C161.084 154.789 160.911 154.834 160.687 154.903C160.472 154.965 160.063 155.154 159.46 155.47C158.865 155.794 158.307 156.185 157.786 156.643C156.656 157.635 155.921 158.608 155.579 159.561C155.245 160.522 155.437 161.411 156.155 162.229C156.669 162.814 157.116 163.202 157.497 163.392C157.608 163.437 157.77 163.501 157.984 163.583L159.648 162.568L160.224 163.297C159.505 164.142 158.888 164.79 158.375 165.241C158.099 165.185 157.639 164.944 156.994 164.516C156.356 164.097 155.787 163.603 155.287 163.034ZM165.436 164.55L168.866 168.479C169.83 167.604 170.774 166.731 171.7 165.862C171.495 165.516 171.278 165.075 171.048 164.538L171.501 164.205L174.141 167.21C174.004 167.571 173.824 167.851 173.599 168.048C173.215 167.675 172.918 167.369 172.706 167.128L165.763 172.995L166.554 174.089C166.329 174.286 166.029 174.429 165.653 174.518L163.224 171.753L163.613 171.348C164.072 171.612 164.492 171.896 164.873 172.2L168.13 169.168L164.645 165.202C163.189 166.453 162.104 167.392 161.391 168.018L162.182 169.112C161.957 169.31 161.657 169.453 161.281 169.542L158.852 166.777L159.241 166.372C159.7 166.635 160.12 166.92 160.501 167.224C163.54 164.412 165.816 162.299 167.328 160.885C167.123 160.54 166.906 160.099 166.676 159.562L167.129 159.229L169.769 162.234C169.632 162.595 169.452 162.874 169.227 163.072C168.843 162.699 168.546 162.393 168.334 162.152C167.704 162.663 166.738 163.462 165.436 164.55ZM176.087 169.933C176.261 170.035 176.658 170.382 177.278 170.974C177.905 171.559 178.448 172.112 178.905 172.632C179.37 173.161 179.705 173.591 179.91 173.922C179.885 173.958 179.849 173.997 179.801 174.04C179.761 174.075 179.639 174.139 179.437 174.231C179.241 174.332 179.109 174.392 179.04 174.41C178.919 174.402 178.713 174.264 178.42 173.996L173.79 182.131L174.697 183.358C174.473 183.555 174.173 183.698 173.797 183.787L171.368 181.022L171.757 180.617C172.015 180.717 172.335 180.911 172.717 181.2L173.897 179.077L170.951 175.724L168.88 176.542L169.639 177.6C169.415 177.797 169.114 177.94 168.738 178.029L166.309 175.265L166.698 174.859C167.085 175.073 167.465 175.328 167.839 175.625L176.703 171.969C176.157 171.185 175.813 170.6 175.672 170.213L176.087 169.933ZM175.743 175.773L177.539 173.066C177.505 173.011 177.449 172.939 177.372 172.851L174.35 174.356L171.91 175.264L174.476 178.185L175.743 175.773Z" fill="#3A4638"/>
<path d="M80.4237 197.177C79.1937 195.617 77.9453 195.336 76.6783 196.335C76.0605 196.822 75.8383 197.617 76.0116 198.72C76.0851 199.222 76.1979 199.753 76.3501 200.312C76.494 200.861 76.6264 201.427 76.7471 202.011C76.8679 202.595 76.9441 203.155 76.9757 203.69C76.999 204.215 76.9141 204.732 76.721 205.241C76.5196 205.739 76.1886 206.17 75.7278 206.533C74.9739 207.127 74.0958 207.327 73.0935 207.133C72.0725 206.936 71.141 206.303 70.299 205.235C69.457 204.167 68.8942 202.786 68.6106 201.091C69.2074 200.62 70.0139 200.103 71.0299 199.54C71.243 199.746 71.498 200.037 71.7952 200.414L70.3448 202.321C70.381 202.497 70.5163 202.797 70.7506 203.224C70.9767 203.64 71.2012 203.989 71.4241 204.272C71.9029 204.879 72.4052 205.247 72.9311 205.376C73.4466 205.513 73.9347 205.4 74.3954 205.037C74.8456 204.682 75.1013 204.166 75.1623 203.49C75.2047 202.811 75.1379 202.091 74.9622 201.33C74.7678 200.566 74.5879 199.8 74.4226 199.03C74.2491 198.25 74.2295 197.493 74.3639 196.759C74.4795 196.023 74.8252 195.427 75.4011 194.973C76.4482 194.148 77.5362 193.859 78.6652 194.107C79.7837 194.362 80.7887 195.056 81.6802 196.186C82.1672 196.804 82.6013 197.549 82.9824 198.42C83.3448 199.289 83.5599 200.078 83.6277 200.789C82.9096 201.321 82.0362 201.882 81.0075 202.472C80.7945 202.267 80.5394 201.976 80.2422 201.599L81.8669 199.783C81.7796 199.478 81.5962 199.063 81.3167 198.536C81.0185 198.007 80.7209 197.554 80.4237 197.177Z" fill="white"/>
<path d="M66.6041 197.275L70.7382 194.795L69.0567 192.119L67.7523 192.75C67.5537 192.434 67.4368 192.035 67.4016 191.553L70.619 189.531L71.0423 190.092C70.6633 190.566 70.3278 190.935 70.0359 191.197L71.8558 194.093C72.8521 193.498 74.3169 192.609 76.2502 191.425L73.8131 187.547L71.9659 188.141L71.4164 187.117C71.9605 186.554 72.4809 186.117 72.9777 185.805C73.4631 185.5 73.7863 185.312 73.9472 185.243L79.1195 193.472L78.5587 193.895C78.0659 193.512 77.6346 193.114 77.2647 192.701C72.9046 195.536 69.6663 197.65 67.5498 199.043C67.6833 199.306 67.86 199.887 68.0799 200.789L67.3832 201.108L62.2535 192.946C62.3861 192.832 62.6048 192.678 62.9096 192.487C63.5305 192.097 64.2518 191.753 65.0736 191.457C65.2862 191.67 65.5202 191.98 65.7756 192.386L64.4223 193.804L66.6041 197.275Z" fill="white"/>
<path d="M60.9811 173.429C60.805 172.67 60.9114 171.908 61.3004 171.143C61.6848 170.365 62.4097 169.783 63.475 169.396C64.5278 169.014 65.5074 169.134 66.4138 169.755C67.303 170.369 68.0388 171.478 68.621 173.082L70.4904 178.233L69.8528 178.528C69.4487 178.079 69.1028 177.595 68.8149 177.075C64.0042 178.906 60.3985 180.286 57.9977 181.214C58.0772 181.667 58.1269 182.273 58.1469 183.032C57.6695 183.163 57.42 183.218 57.3984 183.197L55.6859 178.478C55.0764 176.799 54.8067 175.606 54.8766 174.9C54.9099 174.561 54.987 174.207 55.108 173.837C55.3499 173.097 55.9911 172.538 57.0314 172.16C57.5578 171.969 58.0682 171.89 58.5625 171.924C59.0398 171.949 59.4436 172.065 59.7738 172.271C60.3784 172.648 60.7809 173.034 60.9811 173.429ZM62.5332 175.185L63.2905 177.272C64.3775 176.906 65.9783 176.353 68.0931 175.614L67.3698 173.621C66.6148 171.541 65.4602 170.782 63.9061 171.346C63.0036 171.674 62.4594 172.148 62.2733 172.769C62.0827 173.377 62.1693 174.182 62.5332 175.185ZM57.0702 178.189L57.4983 179.31C58.6605 178.916 60.1628 178.385 62.0052 177.717L61.3366 175.874C60.9364 174.771 60.4635 174.113 59.918 173.9C59.3554 173.679 58.6166 173.734 57.7016 174.066C56.4483 174.521 56.2378 175.895 57.0702 178.189Z" fill="white"/>
<path d="M54.3943 169.799L59.0982 168.742L58.342 165.674L56.9056 165.863C56.8163 165.501 56.8306 165.085 56.9486 164.617L60.6382 163.708L60.8639 164.373C60.3551 164.704 59.921 164.949 59.5615 165.106L60.3798 168.426C61.5125 168.175 63.1825 167.791 65.3897 167.274L64.2937 162.827L62.3535 162.811L62.1536 161.666C62.8469 161.302 63.4783 161.051 64.0479 160.91C64.6046 160.773 64.9703 160.697 65.145 160.681L67.4708 170.119L66.8055 170.345C66.458 169.826 66.1735 169.313 65.9521 168.804C60.9223 170.126 57.1839 171.116 54.7369 171.774C54.7812 172.065 54.7662 172.673 54.692 173.598L53.9301 173.682L51.6235 164.322C51.7854 164.255 52.0411 164.178 52.3906 164.092C53.1027 163.917 53.8953 163.818 54.7685 163.795C54.9034 164.063 55.0283 164.431 55.1432 164.897L53.4132 165.818L54.3943 169.799Z" fill="white"/>
<path d="M57.024 154.879C57.0123 154.1 57.2774 153.377 57.8193 152.712C58.3595 152.033 59.191 151.617 60.314 151.464C61.4238 151.313 62.356 151.637 63.1105 152.436C63.85 153.224 64.3347 154.463 64.5646 156.154L65.3029 161.584L64.6174 161.738C64.3173 161.214 64.0815 160.667 63.91 160.098C58.821 160.871 55.0052 161.457 52.4625 161.857C52.4443 162.317 52.3648 162.92 52.224 163.665C51.7298 163.692 51.4743 163.693 51.4575 163.669L50.7812 158.694C50.5405 156.924 50.5289 155.701 50.7466 155.026C50.8506 154.702 51.0009 154.372 51.1974 154.036C51.5904 153.363 52.3351 152.953 53.4317 152.804C53.9866 152.728 54.5021 152.759 54.9783 152.896C55.4394 153.022 55.8095 153.22 56.0887 153.492C56.6001 153.988 56.9119 154.45 57.024 154.879ZM58.1699 156.923L58.4689 159.123C59.6088 158.995 61.2902 158.793 63.5134 158.517L63.2278 156.417C62.9296 154.224 61.9614 153.238 60.3231 153.461C59.3719 153.591 58.7397 153.939 58.4266 154.506C58.1117 155.06 58.0262 155.866 58.1699 156.923ZM52.1954 158.704L52.3768 159.89C53.5959 159.751 55.1765 159.55 57.1186 159.286L56.8546 157.344C56.6965 156.181 56.3734 155.438 55.8854 155.114C55.3823 154.779 54.6485 154.677 53.684 154.808C52.3629 154.988 51.8666 156.286 52.1954 158.704Z" fill="white"/>
<path d="M51.3533 149.937L56.1742 149.899L56.0837 146.741L54.6397 146.622C54.629 146.249 54.7309 145.846 54.9452 145.413L58.7437 145.304L58.8237 146.002C58.2563 146.218 57.7803 146.365 57.3957 146.443L57.4937 149.862C58.6539 149.855 60.3673 149.833 62.6338 149.794L62.5027 145.216L60.6097 144.79L60.6565 143.628C61.4108 143.42 62.0812 143.308 62.6676 143.291C63.2407 143.274 63.6143 143.277 63.7883 143.299L64.0666 153.015L63.3686 153.095C63.1386 152.514 62.9691 151.952 62.8602 151.409C57.6646 151.637 53.8014 151.815 51.2706 151.941C51.2524 152.235 51.1092 152.826 50.8412 153.714L50.0787 153.635L49.8026 143.999C49.9751 143.968 50.2413 143.947 50.6012 143.937C51.3342 143.916 52.1299 143.986 52.9882 144.148C53.0633 144.44 53.1076 144.825 53.1214 145.305L51.2359 145.839L51.3533 149.937Z" fill="white"/>
<path d="M62.0835 127.575C62.1406 128.142 62.1044 128.772 61.9749 129.467C61.8453 130.162 61.6789 130.836 61.4756 131.49C60.7598 131.546 60.0349 131.506 59.3009 131.369C58.5538 131.23 57.9569 131.085 57.5104 130.934C57.5244 130.204 57.5962 129.492 57.7257 128.797C57.8577 128.089 58.0041 127.486 58.165 126.987C58.939 126.982 59.6733 127.044 60.368 127.174C61.0627 127.303 61.6346 127.437 62.0835 127.575Z" fill="white"/>
<path d="M69.0276 113.453C69.7964 111.621 69.437 110.393 67.9493 109.768C67.224 109.464 66.4209 109.655 65.5402 110.341C65.1363 110.648 64.7267 111.004 64.3113 111.408C63.9011 111.8 63.4698 112.19 63.0175 112.579C62.5653 112.968 62.1126 113.305 61.6596 113.592C61.2117 113.867 60.7184 114.043 60.1798 114.121C59.6463 114.186 59.109 114.105 58.5681 113.878C57.6829 113.507 57.0825 112.836 56.767 111.865C56.4444 110.876 56.5463 109.755 57.0725 108.501C57.5988 107.247 58.5346 106.085 59.8799 105.016C60.5807 105.31 61.4236 105.765 62.4087 106.38C62.3321 106.666 62.2009 107.031 62.0152 107.473L59.6437 107.129C59.5081 107.245 59.3105 107.509 59.0509 107.921C58.7966 108.32 58.5998 108.686 58.4605 109.018C58.1612 109.731 58.0827 110.349 58.225 110.871C58.3549 111.389 58.6904 111.761 59.2313 111.988C59.76 112.21 60.335 112.183 60.9562 111.909C61.5702 111.617 62.1677 111.21 62.7485 110.688C63.3222 110.147 63.9056 109.619 64.4987 109.101C65.097 108.571 65.7498 108.187 66.4571 107.949C67.1572 107.694 67.8454 107.708 68.5216 107.991C69.751 108.507 70.531 109.319 70.8615 110.427C71.1797 111.529 71.0602 112.744 70.503 114.072C70.1986 114.797 69.7577 115.538 69.1804 116.293C68.596 117.031 68.0094 117.602 67.4206 118.006C66.6072 117.635 65.6931 117.143 64.6782 116.529C64.7549 116.243 64.8861 115.879 65.0718 115.437L67.4474 115.978C67.6715 115.754 67.9463 115.392 68.2717 114.892C68.5899 114.375 68.8419 113.895 69.0276 113.453Z" fill="white"/>
<path d="M62.2456 101.411L66.4183 103.826L67.944 101.059L66.7601 100.223C66.9404 99.8963 67.2327 99.6007 67.6372 99.3365L70.965 101.171L70.6796 101.813C70.081 101.711 69.5963 101.596 69.2255 101.468L67.5743 104.463C68.5773 105.047 70.0649 105.897 72.037 107.015L74.2482 103.004L72.8335 101.676L73.4636 100.699C74.2193 100.902 74.854 101.145 75.3678 101.429C75.8699 101.705 76.1904 101.897 76.3293 102.004L71.6366 110.517L70.9946 110.231C71.091 109.614 71.2303 109.044 71.4125 108.52C66.82 106.08 63.4017 104.272 61.1574 103.095C60.9924 103.339 60.5691 103.776 59.8873 104.405L59.27 103.95L63.9241 95.5081C64.0888 95.5684 64.3288 95.6855 64.644 95.8593C65.2862 96.2133 65.9359 96.6781 66.5931 97.2535C66.5099 97.5426 66.3524 97.8973 66.1206 98.3177L64.225 97.8207L62.2456 101.411Z" fill="white"/>
<path d="M84.4805 91.7405C81.9051 94.6958 78.7628 94.5572 75.0536 91.3248C73.2945 89.7918 72.2686 88.2699 71.9758 86.7591C71.6918 85.2382 72.2374 83.6886 73.6127 82.1105C74.7165 80.8439 76.0494 80.0247 77.6115 79.6528C78.1744 80.1434 78.8268 80.8357 79.5686 81.7298C79.4762 81.8968 79.2372 82.2014 78.8518 82.6437L76.5879 81.4667C75.8353 82.0665 75.2706 82.5825 74.8939 83.0148C74.2019 83.8089 73.7037 84.6038 73.3992 85.3997L73.2551 85.7781C73.3031 85.926 73.3881 86.1328 73.5103 86.3985C73.6225 86.6554 73.9245 87.1308 74.4163 87.8247C74.9169 88.5085 75.4939 89.1352 76.1472 89.7046C77.5646 90.9397 78.8918 91.6896 80.1291 91.9543C81.3751 92.2089 82.4449 91.8236 83.3384 90.7983C83.9779 90.0645 84.3843 89.446 84.5576 88.9426C84.595 88.7983 84.6466 88.5869 84.7125 88.3083L83.1791 86.4149L83.9865 85.5798C85.1532 86.3313 86.0583 86.9873 86.7016 87.548C86.6784 87.8992 86.4558 88.5099 86.0336 89.3799C85.6201 90.24 85.1024 91.0268 84.4805 91.7405Z" fill="white"/>
<path d="M89.5988 84.2926C91.5741 82.4617 91.2747 80.1576 88.7005 77.3805C86.1173 74.5935 83.8381 74.1155 81.8628 75.9464C80.9338 76.8075 80.3028 77.6468 79.9699 78.4645C80.4117 80.0002 81.267 81.4526 82.536 82.8217C83.7959 84.1809 85.0042 85.0334 86.161 85.3792C87.3185 85.7062 88.4644 85.344 89.5988 84.2926ZM81.2752 84.3447C79.68 82.6237 78.8039 80.9724 78.6469 79.3908C78.4906 77.7904 79.2094 76.2514 80.8034 74.774C82.4071 73.2875 83.9353 72.6709 85.3881 72.9242C86.8416 73.1586 88.3706 74.1412 89.9749 75.8721C91.5792 77.6029 92.4685 79.2783 92.6429 80.8983C92.8271 82.5092 92.1418 84.0352 90.587 85.4764C89.0419 86.9085 87.5001 87.5104 85.9614 87.2822C84.4325 87.045 82.8705 86.0658 81.2752 84.3447Z" fill="white"/>
<path d="M93.6708 66.6112L102.087 74.3805L103.654 73.4364C103.869 73.725 104.013 74.108 104.087 74.5855L100.4 77.3362L99.9332 76.8111C100.15 76.4329 100.462 76.0257 100.868 75.5894L92.4437 67.8762L97.1327 78.576L95.5457 79.76L85.7993 72.7834L91.0906 82.5848L92.5488 81.6965C92.7721 81.9957 92.9204 82.3841 92.9939 82.8616L89.307 85.6123L88.8403 85.0871C89.1829 84.5653 89.5575 84.0863 89.9639 83.65L84.438 73.3C83.7143 73.6902 83.1123 73.9647 82.6319 74.1235L82.2176 73.4344L85.9527 70.6478L95.0553 77.5308L95.1195 77.4829L90.5533 67.2154L94.128 64.5484C94.5649 64.7548 94.9029 65.0183 95.1421 65.3389C94.5032 65.932 94.0128 66.3561 93.6708 66.6112Z" fill="white"/>
<path d="M96.265 65.1331L98.6343 69.3318L101.354 67.7221L100.758 66.4014C101.079 66.2112 101.481 66.105 101.964 66.0827L103.899 69.3527L103.327 69.7609C102.863 69.3694 102.504 69.0243 102.25 68.7255L99.3067 70.4677C99.8746 71.4795 100.724 72.9674 101.856 74.9315L105.797 72.5985L105.253 70.7362L106.292 70.2141C106.84 70.773 107.263 71.3049 107.562 71.8097C107.854 72.3031 108.032 72.6312 108.098 72.7939L99.7334 77.7453L99.3252 77.1735C99.7214 76.691 100.131 76.2704 100.554 75.9117C97.8361 71.4777 95.809 68.1842 94.4726 66.0314C94.2066 66.1579 93.6203 66.319 92.7136 66.5149L92.4125 65.8099L100.708 60.8993C100.819 61.0349 100.967 61.2576 101.15 61.5674C101.524 62.1984 101.847 62.9287 102.121 63.7581C101.903 63.9649 101.587 64.1905 101.174 64.435L99.7932 63.0445L96.265 65.1331Z" fill="white"/>
<path d="M121.026 63.6837C120.558 64.0082 119.989 64.2822 119.319 64.5054C118.648 64.7287 117.978 64.9099 117.307 65.0489C116.911 64.45 116.595 63.7964 116.359 63.088C116.119 62.3669 115.957 61.7745 115.872 61.3107C116.518 60.9693 117.176 60.687 117.846 60.4637C118.529 60.2362 119.128 60.0719 119.642 59.9708C120.022 60.6455 120.323 61.3181 120.546 61.9886C120.769 62.659 120.93 63.2241 121.026 63.6837Z" fill="white"/>
<path d="M136.745 62.9152C138.72 62.7001 139.62 61.7906 139.445 60.1867C139.36 59.4047 138.804 58.7946 137.777 58.3566C137.312 58.1524 136.802 57.9665 136.248 57.7989C135.706 57.6299 135.156 57.4417 134.597 57.2344C134.038 57.0271 133.523 56.7948 133.052 56.5376C132.595 56.2789 132.202 55.9328 131.873 55.4992C131.557 55.0642 131.368 54.555 131.304 53.9718C131.2 53.0175 131.496 52.167 132.193 51.4205C132.901 50.6593 133.932 50.2051 135.284 50.0578C136.636 49.9105 138.105 50.1662 139.693 50.8249C139.775 51.5804 139.785 52.5382 139.724 53.6984C139.437 53.7699 139.055 53.8316 138.577 53.8836L137.73 51.6422C137.562 51.58 137.235 51.5352 136.749 51.5076C136.277 51.4786 135.861 51.4836 135.504 51.5226C134.735 51.6064 134.156 51.837 133.768 52.2146C133.379 52.5789 133.216 53.0527 133.279 53.6359C133.341 54.2059 133.643 54.6961 134.184 55.1066C134.737 55.5024 135.382 55.8277 136.121 56.0826C136.871 56.3227 137.617 56.5768 138.357 56.8449C139.11 57.1116 139.762 57.4966 140.313 57.9998C140.876 58.4884 141.197 59.0972 141.277 59.8262C141.421 61.1517 141.089 62.2274 140.28 63.0531C139.47 63.8656 138.349 64.3499 136.918 64.5058C136.136 64.591 135.275 64.5641 134.334 64.4252C133.405 64.2715 132.622 64.035 131.983 63.7156C131.913 62.8246 131.901 61.7865 131.946 60.6013C132.233 60.5298 132.615 60.468 133.093 60.416L133.77 62.7564C134.075 62.844 134.524 62.909 135.119 62.9515C135.726 62.9793 136.267 62.9672 136.745 62.9152Z" fill="white"/>
<path d="M143.992 51.1479L143.902 55.9681L147.062 55.9617L147.219 54.5214C147.592 54.5206 147.992 54.6332 148.419 54.859L148.427 58.659L147.727 58.7204C147.526 58.1474 147.392 57.6677 147.324 57.2812L143.904 57.2881C143.88 58.4481 143.857 60.1615 143.835 62.4282L148.415 62.419L148.891 60.538L150.051 60.6157C150.239 61.3753 150.334 62.0485 150.335 62.6351C150.336 63.2085 150.324 63.5818 150.297 63.7552L140.577 63.7748L140.516 63.0749C141.102 62.8604 141.669 62.7059 142.215 62.6115C142.125 57.4116 142.05 53.5451 141.992 51.0119C141.698 50.9858 141.111 50.827 140.231 50.5354L140.329 49.7752L149.969 49.7558C149.996 49.9291 150.01 50.1957 150.011 50.5557C150.012 51.2891 149.92 52.0826 149.736 52.9363C149.442 53.0036 149.056 53.0377 148.576 53.0386L148.092 51.1396L143.992 51.1479Z" fill="white"/>
<path d="M167.19 59.0297C167.926 59.2829 168.516 59.7773 168.958 60.513C169.414 61.2514 169.523 62.1747 169.285 63.2829C169.051 64.3781 168.43 65.145 167.422 65.5838C166.43 66.0122 165.1 66.0478 163.431 65.6904L158.073 64.5428L158.161 63.8458C158.756 63.7414 159.35 63.705 159.943 63.7366C160.943 58.6873 161.686 54.8989 162.173 52.3715C161.746 52.1983 161.206 51.919 160.552 51.5336C160.695 51.0595 160.78 50.8188 160.809 50.8113L165.718 51.8626C167.465 52.2368 168.619 52.6408 169.181 53.0747C169.45 53.2823 169.709 53.5356 169.959 53.8345C170.458 54.4323 170.592 55.2722 170.36 56.3544C170.243 56.9019 170.039 57.3764 169.748 57.7778C169.474 58.169 169.161 58.4498 168.811 58.6202C168.172 58.9332 167.631 59.0697 167.19 59.0297ZM164.878 59.4141L162.707 58.9492C162.441 60.0649 162.06 61.7151 161.565 63.8998L163.638 64.3438C165.802 64.8073 167.057 64.2307 167.404 62.614C167.605 61.6753 167.491 60.9625 167.064 60.4755C166.65 59.9913 165.921 59.6375 164.878 59.4141ZM165.229 53.1897L164.051 52.9579C163.769 54.1518 163.422 55.707 163.011 57.6236L164.928 58.034C166.075 58.2797 166.884 58.228 167.354 57.8787C167.84 57.5192 168.185 56.8635 168.389 55.9118C168.668 54.608 167.615 53.7006 165.229 53.1897Z" fill="white"/>
<path d="M172.028 53.7914C172.281 53.7903 172.929 53.9119 173.971 54.1562C175.018 54.3879 175.953 54.6389 176.776 54.9095C177.612 55.1842 178.246 55.4345 178.677 55.6603C178.673 55.7151 178.658 55.7806 178.633 55.8566C178.613 55.9199 178.523 56.0657 178.363 56.2941C178.217 56.5266 178.112 56.6747 178.049 56.7382C177.914 56.8062 177.604 56.7886 177.119 56.6852L177.296 68.385L179.051 69.1301C178.934 69.4848 178.702 69.8294 178.353 70.164L173.983 68.7281L174.144 68.0443C174.486 67.9881 174.954 67.9945 175.549 68.0636L175.472 65.0281L170.171 63.2863L168.46 65.4819L169.949 66.1396C169.833 66.4943 169.6 66.8389 169.252 67.1735L164.882 65.7375L165.043 65.0538C165.596 65.0388 166.167 65.0722 166.758 65.154L173.984 55.5919C172.898 55.0947 172.156 54.6826 171.758 54.3554L172.028 53.7914ZM175.364 60.2978L175.58 56.2428C175.508 56.2051 175.403 56.1634 175.263 56.1176L172.964 59.6566L170.913 62.1826L175.53 63.6997L175.364 60.2978Z" fill="white"/>
<path d="M185.671 59.8647L180.816 70.1366L182.281 70.9736C182.128 71.3139 181.86 71.6318 181.478 71.9275L177.285 70.0351L177.518 69.3724C178.165 69.4303 178.784 69.534 179.375 69.6836C179.707 68.8827 180.399 67.235 181.452 64.7406C182.517 62.2516 183.336 60.3244 183.908 58.959C183.466 58.6424 182.985 58.2497 182.465 57.781L182.807 57.1677L187.365 59.2245C187.396 59.7067 187.335 60.1179 187.181 60.4582C186.539 60.2271 186.036 60.0292 185.671 59.8647Z" fill="white"/>
<path d="M193.15 74.8695C193.144 74.9587 193.035 75.2503 192.823 75.744C192.622 76.2445 192.427 76.6558 192.238 76.9778C192.056 77.2884 191.894 77.5255 191.751 77.6893L183.557 72.883L183.859 72.2488C184.515 72.3703 185.081 72.5248 185.558 72.7121C188.147 68.1402 190.049 64.7655 191.265 62.5878C190.993 62.3664 190.568 61.9316 189.99 61.2833L190.45 60.6956L194.608 63.1342C194.614 63.5709 194.513 63.9675 194.304 64.324C193.67 63.9828 193.211 63.7369 192.928 63.5865C191.61 65.7812 190.406 67.7804 189.318 69.5841C188.247 71.383 187.49 72.6471 187.047 73.3764L190.825 75.5924L192.2 74.1964C192.775 74.5337 193.092 74.758 193.15 74.8695Z" fill="white"/>
<path d="M199.548 66.6864C199.789 66.7648 200.365 67.0837 201.279 67.6431C202.199 68.1917 203.008 68.7238 203.705 69.2392C204.412 69.7626 204.935 70.1992 205.274 70.549C205.253 70.5998 205.218 70.6574 205.171 70.7217C205.131 70.7753 205 70.8855 204.777 71.0523C204.565 71.227 204.419 71.3346 204.339 71.3751C204.19 71.3974 203.901 71.2833 203.473 71.0328L199.966 82.196L201.398 83.4546C201.176 83.7548 200.847 84.0089 200.411 84.2171L196.713 81.4813L197.081 80.8829C197.423 80.9366 197.865 81.0897 198.408 81.3422L199.289 78.4363L194.803 75.1176L192.489 76.6648L193.697 77.7569C193.475 78.0571 193.146 78.3112 192.71 78.5194L189.012 75.7836L189.38 75.1852C189.909 75.3444 190.441 75.5555 190.976 75.8187L200.839 69.01C199.965 68.197 199.39 67.5728 199.115 67.1372L199.548 66.6864ZM200.672 73.9112L202.151 70.1294C202.094 70.0711 202.007 69.9984 201.889 69.9111L198.595 72.5488L195.854 74.3027L199.761 77.1932L200.672 73.9112Z" fill="white"/>
<path d="M211.708 91.0337C211.227 90.7286 210.753 90.3106 210.287 89.7797C209.82 89.2488 209.393 88.7016 209.004 88.1379C209.402 87.5401 209.881 86.9948 210.442 86.5019C211.013 86.0003 211.495 85.6205 211.89 85.3626C212.455 85.8243 212.971 86.3206 213.438 86.8515C213.913 87.3924 214.297 87.8801 214.59 88.3148C214.116 88.9266 213.614 89.4657 213.083 89.9321C212.552 90.3985 212.094 90.7657 211.708 91.0337Z" fill="white"/>
<path d="M218.48 105.163C219.446 106.899 220.634 107.374 222.044 106.59C222.731 106.207 223.077 105.458 223.082 104.342C223.089 103.834 223.062 103.292 223.001 102.716C222.946 102.151 222.905 101.571 222.879 100.975C222.853 100.38 222.866 99.8149 222.92 99.2813C222.981 98.7593 223.147 98.2625 223.419 97.7909C223.697 97.331 224.092 96.9584 224.605 96.673C225.443 96.2062 226.342 96.1485 227.301 96.5C228.277 96.8567 229.097 97.6292 229.758 98.8176C230.419 100.006 230.755 101.459 230.766 103.178C230.101 103.547 229.223 103.93 228.13 104.324C227.953 104.087 227.747 103.759 227.514 103.34L229.249 101.687C229.241 101.508 229.156 101.19 228.992 100.732C228.835 100.285 228.669 99.9043 228.494 99.5898C228.118 98.914 227.68 98.4708 227.182 98.2601C226.695 98.0429 226.195 98.077 225.682 98.3623C225.181 98.6411 224.847 99.1095 224.679 99.7675C224.529 100.431 224.48 101.152 224.533 101.932C224.603 102.716 224.659 103.502 224.7 104.288C224.747 105.086 224.646 105.836 224.397 106.54C224.165 107.248 223.729 107.781 223.088 108.137C221.923 108.786 220.803 108.898 219.728 108.474C218.664 108.044 217.783 107.199 217.082 105.941C216.7 105.254 216.39 104.45 216.152 103.529C215.932 102.614 215.846 101.8 215.892 101.087C216.685 100.676 217.637 100.261 218.746 99.842C218.924 100.079 219.129 100.407 219.363 100.826L217.47 102.361C217.508 102.675 217.623 103.115 217.815 103.679C218.025 104.249 218.247 104.743 218.48 105.163Z" fill="white"/>
<path d="M232.14 107.264L227.664 109.055L228.898 111.964L230.286 111.549C230.432 111.893 230.484 112.305 230.442 112.786L226.944 114.271L226.615 113.65C227.065 113.242 227.455 112.932 227.785 112.719L226.449 109.571C225.37 110 223.783 110.645 221.686 111.506L223.475 115.722L225.393 115.429L225.773 116.528C225.146 116.997 224.563 117.346 224.023 117.575C223.495 117.799 223.146 117.933 222.976 117.976L219.179 109.028L219.8 108.699C220.225 109.156 220.588 109.618 220.887 110.085C225.643 107.979 229.176 106.407 231.487 105.369C231.397 105.088 231.315 104.486 231.241 103.561L231.98 103.356L235.746 112.23C235.597 112.322 235.357 112.439 235.025 112.579C234.35 112.866 233.584 113.09 232.725 113.251C232.549 113.007 232.367 112.665 232.18 112.223L233.741 111.039L232.14 107.264Z" fill="white"/>
<path d="M233.898 131.701C233.951 132.478 233.725 133.214 233.219 133.907C232.716 134.614 231.907 135.074 230.794 135.286C229.694 135.496 228.746 135.222 227.95 134.464C227.17 133.717 226.62 132.505 226.3 130.829L225.274 125.445L225.95 125.255C226.278 125.763 226.542 126.296 226.744 126.855C231.784 125.813 235.564 125.024 238.081 124.49C238.075 124.03 238.122 123.424 238.223 122.671C238.715 122.618 238.97 122.604 238.989 122.627L239.929 127.558C240.263 129.314 240.34 130.534 240.158 131.22C240.072 131.549 239.939 131.886 239.761 132.233C239.404 132.925 238.682 133.375 237.595 133.582C237.045 133.687 236.529 133.683 236.046 133.572C235.579 133.471 235.199 133.292 234.906 133.036C234.368 132.568 234.033 132.123 233.898 131.701ZM232.645 129.721L232.229 127.54C231.098 127.729 229.429 128.019 227.224 128.413L227.621 130.495C228.035 132.669 229.055 133.602 230.679 133.292C231.622 133.112 232.235 132.731 232.517 132.148C232.802 131.578 232.844 130.769 232.645 129.721ZM238.516 127.624L238.272 126.449C237.062 126.653 235.494 126.938 233.569 127.305L233.936 129.23C234.155 130.383 234.518 131.108 235.022 131.405C235.542 131.713 236.281 131.776 237.237 131.594C238.547 131.344 238.973 130.021 238.516 127.624Z" fill="white"/>
<path d="M239.824 136.334L235.012 136.628L235.27 139.778L236.718 139.819C236.749 140.191 236.669 140.599 236.478 141.043L232.69 141.354L232.573 140.661C233.128 140.415 233.596 140.243 233.976 140.145L233.696 136.736C232.538 136.804 230.828 136.918 228.567 137.077L228.941 141.642L230.854 141.966L230.869 143.129C230.127 143.377 229.464 143.525 228.879 143.573C228.308 143.62 227.935 143.637 227.76 143.625L226.965 133.937L227.657 133.82C227.918 134.388 228.117 134.94 228.255 135.477C233.431 134.972 237.279 134.589 239.8 134.329C239.802 134.034 239.914 133.437 240.134 132.536L240.9 132.573L241.688 142.181C241.518 142.221 241.253 142.257 240.894 142.286C240.163 142.346 239.365 142.318 238.499 142.202C238.409 141.915 238.344 141.532 238.305 141.054L240.159 140.42L239.824 136.334Z" fill="white"/>
<path d="M234.854 150.645C234.742 151.416 234.365 152.087 233.724 152.658C233.083 153.242 232.196 153.521 231.063 153.493C229.943 153.465 229.074 152.997 228.457 152.088C227.852 151.193 227.57 149.892 227.612 148.186L227.747 142.708L228.448 142.665C228.661 143.231 228.807 143.808 228.886 144.396C234.033 144.443 237.894 144.471 240.467 144.481C240.559 144.03 240.733 143.448 240.991 142.734C241.483 142.786 241.735 142.826 241.748 142.853L241.624 147.871C241.58 149.657 241.397 150.866 241.075 151.499C240.921 151.802 240.72 152.103 240.472 152.404C239.978 153.005 239.177 153.292 238.071 153.265C237.511 153.251 237.007 153.139 236.558 152.928C236.123 152.73 235.789 152.475 235.557 152.163C235.131 151.592 234.897 151.086 234.854 150.645ZM234.048 148.445L234.103 146.225C232.957 146.171 231.265 146.102 229.026 146.02L228.974 148.14C228.919 150.352 229.719 151.479 231.371 151.52C232.331 151.543 233.011 151.3 233.41 150.79C233.809 150.293 234.022 149.511 234.048 148.445ZM240.23 147.637L240.239 146.436C239.014 146.38 237.421 146.327 235.462 146.279L235.413 148.238C235.385 149.411 235.585 150.196 236.016 150.594C236.459 151.005 237.167 151.222 238.14 151.246C239.473 151.279 240.17 150.076 240.23 147.637Z" fill="white"/>
<path d="M239.666 156.425L234.901 155.696L234.488 158.829L235.894 159.176C235.846 159.546 235.681 159.928 235.4 160.321L231.633 159.824L231.665 159.122C232.26 158.999 232.753 158.93 233.145 158.914L233.592 155.523C232.446 155.345 230.75 155.095 228.507 154.772L227.908 159.313L229.709 160.034L229.478 161.174C228.7 161.26 228.02 161.264 227.439 161.188C226.87 161.113 226.502 161.051 226.334 161.001L227.604 151.365L228.306 151.397C228.441 152.006 228.519 152.588 228.54 153.142C233.706 153.743 237.548 154.182 240.067 154.461C240.131 154.173 240.367 153.613 240.773 152.778L241.513 152.977L240.253 162.534C240.077 162.538 239.811 162.516 239.454 162.469C238.727 162.373 237.953 162.177 237.131 161.881C237.104 161.581 237.121 161.193 237.184 160.717L239.13 160.49L239.666 156.425Z" fill="white"/>
<path d="M225.516 176.796C225.55 176.228 225.686 175.611 225.924 174.946C226.163 174.28 226.434 173.641 226.739 173.028C227.454 173.086 228.164 173.241 228.867 173.493C229.582 173.749 230.148 173.988 230.565 174.208C230.435 174.926 230.251 175.618 230.013 176.283C229.77 176.961 229.529 177.533 229.291 178C228.526 177.882 227.811 177.704 227.146 177.465C226.48 177.227 225.937 177.004 225.516 176.796Z" fill="white"/>
<path d="M216.414 189.634C215.363 191.321 215.523 192.59 216.892 193.443C217.56 193.859 218.383 193.798 219.362 193.261C219.81 193.022 220.271 192.736 220.745 192.403C221.212 192.081 221.7 191.765 222.208 191.453C222.717 191.141 223.217 190.88 223.71 190.668C224.196 190.468 224.711 190.373 225.255 190.382C225.792 190.402 226.31 190.568 226.808 190.878C227.623 191.385 228.109 192.144 228.266 193.152C228.427 194.18 228.148 195.271 227.429 196.425C226.71 197.579 225.601 198.577 224.103 199.419C223.458 199.017 222.698 198.434 221.824 197.669C221.945 197.399 222.132 197.06 222.386 196.653L224.672 197.37C224.825 197.277 225.062 197.048 225.384 196.682C225.698 196.329 225.951 195.999 226.141 195.693C226.55 195.037 226.726 194.44 226.668 193.901C226.622 193.37 226.35 192.949 225.852 192.639C225.366 192.336 224.794 192.27 224.137 192.442C223.484 192.633 222.83 192.94 222.173 193.363C221.521 193.805 220.861 194.234 220.193 194.651C219.518 195.079 218.812 195.354 218.076 195.477C217.344 195.618 216.667 195.494 216.045 195.107C214.913 194.402 214.272 193.476 214.122 192.33C213.983 191.191 214.294 190.011 215.056 188.788C215.472 188.121 216.025 187.46 216.715 186.806C217.409 186.17 218.079 185.7 218.725 185.395C219.469 185.89 220.293 186.521 221.197 187.289C221.076 187.559 220.889 187.898 220.635 188.305L218.376 187.393C218.119 187.578 217.79 187.892 217.389 188.333C216.993 188.793 216.668 189.227 216.414 189.634Z" fill="white"/>
<path d="M221.194 202.601L217.459 199.554L215.512 202.043L216.548 203.056C216.318 203.35 215.982 203.595 215.541 203.792L212.547 201.451L212.931 200.863C213.506 201.059 213.966 201.249 214.312 201.435L216.419 198.741C215.521 198.005 214.188 196.929 212.419 195.512L209.598 199.12L210.783 200.656L210.006 201.52C209.292 201.199 208.704 200.858 208.242 200.497C207.79 200.144 207.504 199.903 207.384 199.775L213.371 192.118L213.959 192.502C213.766 193.096 213.538 193.636 213.275 194.125C217.42 197.264 220.508 199.594 222.536 201.112C222.738 200.897 223.225 200.534 223.998 200.021L224.536 200.568L218.598 208.162C218.445 208.076 218.227 207.923 217.943 207.701C217.365 207.249 216.798 206.687 216.241 206.014C216.369 205.742 216.581 205.417 216.876 205.039L218.669 205.831L221.194 202.601Z" fill="white"/>
<path d="M197.704 208.612C200.717 206.104 203.797 206.741 206.945 210.522C208.438 212.315 209.208 213.981 209.257 215.519C209.296 217.066 208.511 218.509 206.902 219.848C205.611 220.923 204.164 221.52 202.563 221.638C202.085 221.065 201.551 220.277 200.961 219.277C201.079 219.126 201.363 218.864 201.814 218.488L203.862 220.01C204.7 219.538 205.34 219.118 205.781 218.751C206.59 218.078 207.209 217.372 207.636 216.635L207.838 216.284C207.814 216.13 207.763 215.913 207.685 215.631C207.615 215.359 207.392 214.842 207.017 214.079C206.632 213.324 206.162 212.614 205.607 211.948C204.405 210.503 203.214 209.551 202.034 209.093C200.844 208.643 199.727 208.854 198.682 209.724C197.934 210.347 197.434 210.893 197.183 211.362C197.123 211.498 197.038 211.699 196.929 211.964L198.142 214.077L197.212 214.773C196.18 213.845 195.39 213.054 194.844 212.398C194.923 212.055 195.24 211.487 195.795 210.695C196.34 209.912 196.977 209.218 197.704 208.612Z" fill="white"/>
<path d="M191.466 215.151C189.225 216.644 189.154 218.966 191.253 222.118C193.36 225.28 195.534 226.114 197.776 224.621C198.83 223.919 199.586 223.19 200.045 222.436C199.853 220.85 199.24 219.28 198.205 217.726C197.177 216.184 196.12 215.15 195.033 214.625C193.942 214.118 192.753 214.293 191.466 215.151ZM199.692 216.423C200.993 218.376 201.595 220.146 201.499 221.732C201.398 223.337 200.444 224.742 198.635 225.947C196.816 227.159 195.209 227.525 193.815 227.044C192.417 226.581 191.064 225.368 189.755 223.404C188.447 221.44 187.835 219.645 187.921 218.017C187.995 216.398 188.914 215 190.679 213.825C192.432 212.657 194.05 212.307 195.533 212.778C197.004 213.255 198.391 214.47 199.692 216.423Z" fill="white"/>
<path d="M184.634 231.96L177.56 222.95L175.864 223.633C175.697 223.314 175.615 222.913 175.619 222.43L179.696 220.301L180.074 220.893C179.799 221.232 179.427 221.585 178.956 221.951L186.046 230.906L183.119 219.596L184.874 218.68L193.387 227.118L189.722 216.6L188.141 217.245C187.968 216.914 187.883 216.507 187.887 216.024L191.964 213.894L192.342 214.487C191.92 214.948 191.474 215.361 191.004 215.727L194.813 226.825C195.589 226.554 196.228 226.379 196.727 226.299L197.026 227.045L192.896 229.202L185.004 220.959L184.933 220.996L187.808 231.859L183.854 233.923C183.456 233.65 183.164 233.336 182.979 232.982C183.704 232.498 184.256 232.157 184.634 231.96Z" fill="white"/>
<path d="M181.837 233.006L180.166 228.484L177.225 229.641L177.604 231.04C177.256 231.176 176.842 231.217 176.362 231.162L174.972 227.626L175.601 227.314C175.997 227.774 176.297 228.172 176.5 228.508L179.683 227.256C179.283 226.167 178.681 224.562 177.876 222.443L173.614 224.12L173.855 226.045L172.747 226.395C172.295 225.756 171.961 225.164 171.747 224.618C171.537 224.084 171.412 223.732 171.374 223.561L180.419 220.003L180.731 220.632C180.263 221.046 179.792 221.396 179.318 221.683C181.295 226.493 182.773 230.067 183.75 232.405C184.033 232.322 184.637 232.256 185.563 232.207L185.748 232.951L176.777 236.479C176.689 236.328 176.579 236.085 176.447 235.75C176.179 235.067 175.975 234.295 175.837 233.432C176.085 233.263 176.433 233.09 176.88 232.915L178.022 234.507L181.837 233.006Z" fill="white"/>
<path d="M157.161 230.498C157.674 230.252 158.28 230.073 158.977 229.959C159.675 229.845 160.366 229.773 161.05 229.742C161.346 230.396 161.554 231.092 161.674 231.829C161.796 232.579 161.862 233.19 161.871 233.661C161.18 233.895 160.486 234.07 159.788 234.183C159.078 234.299 158.461 234.366 157.937 234.384C157.669 233.658 157.479 232.946 157.365 232.248C157.251 231.551 157.183 230.968 157.161 230.498Z" fill="white"/>
<path d="M141.52 228.757C139.536 228.655 138.503 229.41 138.42 231.021C138.38 231.807 138.832 232.498 139.776 233.093C140.203 233.369 140.676 233.633 141.197 233.887C141.705 234.14 142.218 234.413 142.737 234.707C143.256 235.001 143.728 235.312 144.151 235.641C144.562 235.969 144.895 236.373 145.151 236.853C145.393 237.333 145.499 237.866 145.469 238.452C145.42 239.411 144.992 240.203 144.186 240.829C143.365 241.468 142.276 241.753 140.918 241.683C139.559 241.613 138.149 241.127 136.687 240.224C136.726 239.465 136.868 238.518 137.113 237.383C137.408 237.358 137.795 237.357 138.274 237.382L138.755 239.73C138.911 239.818 139.226 239.914 139.701 240.019C140.163 240.122 140.574 240.183 140.934 240.202C141.706 240.242 142.314 240.106 142.757 239.795C143.199 239.497 143.436 239.055 143.466 238.469C143.495 237.897 143.275 237.365 142.806 236.873C142.324 236.395 141.738 235.971 141.049 235.602C140.347 235.245 139.651 234.876 138.963 234.494C138.262 234.11 137.679 233.627 137.215 233.042C136.737 232.47 136.517 231.818 136.555 231.086C136.623 229.754 137.122 228.745 138.052 228.058C138.981 227.385 140.164 227.085 141.602 227.159C142.388 227.199 143.234 227.363 144.141 227.65C145.033 227.949 145.769 228.307 146.348 228.724C146.276 229.615 146.123 230.642 145.89 231.805C145.595 231.83 145.208 231.83 144.729 231.805L144.432 229.387C144.145 229.252 143.712 229.116 143.131 228.98C142.537 228.856 142 228.782 141.52 228.757Z" fill="white"/>
<path d="M132.494 239.222L133.35 234.477L130.229 233.981L129.845 235.378C129.476 235.319 129.099 235.145 128.713 234.854L129.31 231.101L130.011 231.152C130.118 231.749 130.174 232.244 130.179 232.637L133.557 233.174C133.766 232.032 134.061 230.345 134.443 228.11L129.92 227.391L129.151 229.172L128.018 228.911C127.953 228.131 127.966 227.451 128.059 226.872C128.149 226.306 128.22 225.939 128.274 225.772L137.873 227.299L137.823 228C137.21 228.118 136.626 228.181 136.072 228.187C135.334 233.335 134.792 237.164 134.447 239.674C134.732 239.747 135.287 239.997 136.11 240.425L135.892 241.16L126.371 239.645C126.372 239.47 126.401 239.205 126.457 238.849C126.573 238.125 126.789 237.356 127.108 236.543C127.408 236.523 127.795 236.551 128.269 236.626L128.445 238.578L132.494 239.222Z" fill="white"/>
<path d="M110.845 227.75C110.158 227.383 109.655 226.801 109.335 226.005C109.003 225.203 109.042 224.274 109.453 223.218C109.858 222.174 110.594 221.516 111.658 221.243C112.705 220.978 114.024 221.154 115.615 221.772L120.723 223.758L120.525 224.432C119.921 224.44 119.329 224.382 118.748 224.256C116.958 229.082 115.622 232.704 114.739 235.122C115.133 235.361 115.622 235.722 116.206 236.207C115.99 236.652 115.867 236.876 115.837 236.879L111.158 235.06C109.493 234.413 108.418 233.831 107.932 233.313C107.699 233.065 107.484 232.774 107.285 232.439C106.887 231.769 106.889 230.919 107.289 229.887C107.492 229.365 107.769 228.929 108.12 228.579C108.453 228.237 108.806 228.009 109.179 227.897C109.86 227.69 110.416 227.641 110.845 227.75ZM113.189 227.739L115.258 228.543C115.698 227.484 116.336 225.915 117.173 223.837L115.197 223.069C113.134 222.267 111.803 222.637 111.204 224.178C110.856 225.072 110.855 225.794 111.199 226.343C111.531 226.887 112.194 227.352 113.189 227.739ZM111.852 233.828L112.978 234.244C113.447 233.11 114.036 231.63 114.747 229.803L112.92 229.093C111.826 228.668 111.019 228.591 110.5 228.861C109.962 229.138 109.518 229.731 109.165 230.638C108.682 231.881 109.578 232.944 111.852 233.828Z" fill="white"/>
<path d="M105.235 232.152C104.985 232.113 104.365 231.89 103.375 231.483C102.378 231.088 101.495 230.691 100.725 230.293C99.9434 229.889 99.3578 229.541 98.9681 229.25C98.9808 229.196 99.0055 229.134 99.0422 229.063C99.0729 229.004 99.1849 228.874 99.3785 228.674C99.5602 228.468 99.6872 228.338 99.7594 228.286C99.9032 228.24 100.206 228.306 100.669 228.486L102.356 216.907L100.742 215.892C100.913 215.56 101.197 215.257 101.595 214.982L105.681 217.095L105.413 217.744C105.067 217.746 104.606 217.665 104.029 217.502L103.622 220.511L108.578 223.074L110.617 221.178L109.251 220.292C109.423 219.96 109.707 219.657 110.104 219.382L114.191 221.495L113.922 222.144C113.375 222.071 112.816 221.948 112.246 221.773L103.591 230.064C104.584 230.727 105.25 231.252 105.591 231.639L105.235 232.152ZM102.977 225.198L102.118 229.167C102.183 229.216 102.28 229.274 102.411 229.341L105.244 226.213L107.671 224.046L103.354 221.813L102.977 225.198Z" fill="white"/>
<path d="M92.7312 223.986L99.1588 214.617L97.8452 213.558C98.0509 213.246 98.3659 212.975 98.7902 212.744L102.629 215.279L102.293 215.896C101.664 215.736 101.069 215.535 100.51 215.294C100.054 216.032 99.1086 217.548 97.6725 219.843C96.2253 222.131 95.1106 223.904 94.3283 225.161C94.7145 225.544 95.127 226.008 95.5657 226.553L95.1299 227.104L90.9577 224.349C91.0037 223.868 91.1296 223.472 91.3354 223.16C91.9322 223.49 92.3975 223.766 92.7312 223.986Z" fill="white"/>
<path d="M87.7343 207.983C87.7544 207.896 87.9085 207.625 88.1967 207.171C88.4745 206.709 88.7323 206.334 88.97 206.046C89.1992 205.769 89.3972 205.56 89.5638 205.421L96.8895 211.47L96.4901 212.048C95.8625 211.824 95.3279 211.581 94.8863 211.32C91.6032 215.422 89.1885 218.451 87.6421 220.408C87.8755 220.67 88.226 221.167 88.6937 221.899L88.1454 222.406L84.4286 219.337C84.4915 218.905 84.6546 218.529 84.9178 218.21C85.4899 218.648 85.9037 218.964 86.1589 219.157C87.8094 217.2 89.3156 215.418 90.6774 213.81C92.0205 212.205 92.9689 211.077 93.5225 210.428L90.145 207.639L88.5651 208.798C88.051 208.374 87.7741 208.102 87.7343 207.983Z" fill="white"/>
<path d="M80.1161 215.044C79.8912 214.928 79.3725 214.522 78.56 213.824C77.7381 213.136 77.0242 212.482 76.4183 211.862C75.8031 211.233 75.3564 210.719 75.078 210.32C75.1068 210.273 75.1498 210.222 75.207 210.166C75.2547 210.119 75.4019 210.031 75.6485 209.902C75.8857 209.763 76.047 209.68 76.1321 209.653C76.283 209.654 76.5499 209.813 76.9329 210.129L82.1709 199.665L80.9571 198.195C81.224 197.934 81.5893 197.735 82.0528 197.599L85.2686 200.888L84.81 201.421C84.4812 201.313 84.0688 201.092 83.5729 200.756L82.2409 203.485L86.1417 207.475L88.6723 206.315L87.6542 205.045C87.9212 204.784 88.2864 204.585 88.7499 204.449L91.9657 207.738L91.5071 208.271C91.0101 208.029 90.5184 207.736 90.032 207.391L79.2109 212.544C79.9452 213.486 80.4133 214.194 80.6154 214.668L80.1161 215.044ZM80.1563 207.732L78.0943 211.231C78.1407 211.297 78.2152 211.383 78.3177 211.488L81.9901 209.408L84.9748 208.112L81.5773 204.637L80.1563 207.732Z" fill="white"/>
</svg>
